<svg width="206" height="206" viewBox="0 0 206 206" fill="none" xmlns="http://www.w3.org/2000/svg">
<path d="M42.9168 163.083C61.8786 163.083 77.2502 147.711 77.2502 128.75C77.2502 109.788 61.8786 94.4165 42.9168 94.4165C23.955 94.4165 8.5835 109.788 8.5835 128.75C8.5835 147.711 23.955 163.083 42.9168 163.083Z" stroke="white" stroke-width="8.5" stroke-linecap="round" stroke-linejoin="round"/>
<path d="M72.9585 64.375H124.458M124.458 64.375H128.75L163.083 128.75M124.458 64.375L141.625 38.625M141.625 38.625H120.167M141.625 38.625H158.792" stroke="white" stroke-width="8.5" stroke-linecap="round" stroke-linejoin="round"/>
<path d="M42.9165 128.75L72.9582 64.375L103 120.167H128.75" stroke="white" stroke-width="8.5" stroke-linecap="round" stroke-linejoin="round"/>
<path d="M72.9582 64.375C70.0971 55.7917 60.0832 38.625 42.9165 38.625" stroke="white" stroke-width="8.5" stroke-linecap="round" stroke-linejoin="round"/>
<path d="M163.083 163.083C182.045 163.083 197.417 147.711 197.417 128.75C197.417 109.788 182.045 94.4165 163.083 94.4165C144.122 94.4165 128.75 109.788 128.75 128.75C128.75 147.711 144.122 163.083 163.083 163.083Z" stroke="white" stroke-width="8.5" stroke-linecap="round" stroke-linejoin="round"/>
</svg>
