<?xml version="1.0" encoding="UTF-8"?><svg id="Layer_1" xmlns="http://www.w3.org/2000/svg" viewBox="0 0 4849 321"><defs><style>.cls-1{fill:#f28b24;stroke:#f28b24;}.cls-1,.cls-2{stroke-miterlimit:10;stroke-width:1.12px;}.cls-2{fill:#133978;stroke:#133978;}</style></defs><path class="cls-1" d="M34.91,200.98c0,26.71,10.41,51.82,29.29,70.72,18.9,18.88,44.01,29.29,70.72,29.29,26.71,0,51.82-10.41,70.72-29.29,12.62-12.64,21.45-28.05,25.92-44.85.47-1.76,2.14-2.92,3.96-2.79l12.04.88c1.57.11,2.87,1.2,3.36,2.7,3.48,10.63,13.49,18.33,25.27,18.33,8.73,0,16.49-4.22,21.33-10.74,2.84-3.79,4.66-8.38,5.14-13.36.07-.81.11-1.64.11-2.49,0-3.6-.72-7.01-2.02-10.14-.59-1.43-.33-3.06.75-4.17l91.74-94.39c1.87-1.92,5.09-1.37,6.2,1.07l.79,1.73c.77,1.68.22,3.68-1.31,4.72-5.16,3.52-10.04,7.54-14.54,12.06-18.9,18.88-29.29,44.01-29.29,70.72,0,28.2,11.59,54.62,32.53,73.81,18.02,16.52,41.71,25.88,66.15,26.19,27.21.33,52.83-10.09,72.03-29.29,18.88-18.9,29.29-44.01,29.29-70.72,0-28.33-11.72-54.88-32.83-74.09-17.28-15.71-39.73-24.91-63.07-25.85-14.53-.58-28.64,1.94-41.63,7.19-1.89.76-4.05-.09-4.89-1.95l-30.68-67.16c-1.15-2.52.69-5.4,3.47-5.4h31.35c2.14,0,3.52,1.42,4.14,2.27,1.25,1.66,1.66,3.76,1.12,5.6-1.12,3.78-5.65,5.66-12.43,8.09l-.78.28c-2.04.73-3.06,3.01-2.25,5.01l2.66,6.59c.77,1.89,2.89,2.85,4.81,2.18l.53-.19c7.72-2.76,18.27-6.56,21.59-17.78,1.86-6.28.57-13.24-3.44-18.6-3.89-5.2-9.71-8.18-15.95-8.18h-50.84c-2.11,0-3.81,1.71-3.81,3.81v4.9c0,1.58.34,3.14,1,4.58l.66,1.45,11.15,24.39c1.15,2.52-.69,5.4-3.47,5.4h-152.95c-1.51,0-2.88-.89-3.49-2.28l-3.72-8.46c-1.11-2.52.74-5.35,3.49-5.35h13.68c1.97,0,3.78-.79,5.07-2.08,1.18-1.18,1.94-2.77,2.06-4.54.03-.37-.02-.75-.14-1.11-.52-1.62-2.11-3.97-6.68-6.52-3.39-1.9-8.46-3.92-15.95-5.84-18.86-4.84-45.22-6.8-49.06-2.21-1.86,2.23-3.5,4.86-4.48,7.53-2.53,6.91-.75,14.01,12.52,14.77.08,0,.16,0,.24,0h18.8c1.51,0,2.88.89,3.49,2.28l9.11,20.71c.5,1.13.42,2.42-.21,3.48l-20.8,35.07c-1,1.69-3.12,2.34-4.89,1.51-13.17-6.22-27.66-9.51-42.66-9.51-26.71,0-51.82,10.41-70.72,29.29-18.88,18.88-29.29,44.01-29.29,70.72ZM407.61,129.64l31.41,68.77c-.83,1.84-1.27,3.89-1.27,6.02,0,6.72,4.44,12.4,10.54,14.28.37.11.74.2,1.11.28,1.05.24,2.16.37,3.28.37,8.23,0,14.92-6.67,14.92-14.92s-6.69-14.92-14.92-14.92c-.66,0-1.31.06-1.93.13l-30.58-66.92c14.66-6.58,31.5-9.13,49.1-6.3,36.97,5.93,65.85,35.78,70.78,72.9,7.68,57.83-42.74,106.54-100.99,95.92-34.54-6.29-61.84-33.56-68.19-68.08-6.66-36.22,9.63-69.4,36.75-87.52ZM289.84,196.58c-4-2.4-8.66-3.78-13.65-3.78-1.09,0-2.14.07-3.19.2l-50.68-115.21h161.61s6.82,14.94,6.82,14.94l-100.91,103.84ZM261.5,224.55c-4.06-12.5,7.36-23.92,19.85-19.85,4.5,1.46,8.07,5.04,9.53,9.53,4.06,12.5-7.36,23.92-19.85,19.85-4.5-1.46-8.07-5.04-9.53-9.53ZM234.93,200.98c0-26.71-10.41-51.84-29.29-70.72-4-3.98-8.25-7.59-12.77-10.81l18.48-31.15,48.47,110.16c-4.03,3.17-7.13,7.46-8.8,12.42l-16.47-1.22c.26-2.87.39-5.77.39-8.68ZM220.3,208.61l-74.96-5.51c-.26-.66-.57-1.31-.92-1.92l41.12-69.34c21.26,15.6,35.09,40.78,35.09,69.13,0,2.58-.11,5.12-.33,7.63ZM50.05,188.82c5.23-37.82,35.36-67.77,73.21-72.78,18.11-2.39,35.33.89,50.09,8.35l-41.01,69.17c-.33-.02-.66-.04-.99-.04-10.05,0-17.77,9.88-14.04,20.43,1.43,4.05,4.69,7.26,8.74,8.67,7.07,2.45,13.81-.27,17.47-5.31l74.31,5.45c-9.65,36.75-43.16,63.94-82.91,63.94-51.27,0-92.15-45.22-84.87-97.88Z"/><path class="cls-2" d="M2352.8,130.26c-18.9-18.88-44.01-29.29-70.72-29.29-15.01,0-29.49,3.29-42.66,9.51-1.77.84-3.89.18-4.89-1.51l-20.8-35.07c-.63-1.06-.71-2.35-.21-3.48l9.11-20.71c.61-1.38,1.98-2.28,3.49-2.28h18.8c.08,0,.16,0,.24,0,13.26-.75,15.05-7.86,12.52-14.77-.98-2.67-2.62-5.31-4.48-7.53-3.83-4.59-30.19-2.63-49.06,2.21-7.5,1.92-12.56,3.94-15.95,5.84-4.57,2.55-6.15,4.9-6.68,6.52-.12.36-.17.74-.14,1.11.12,1.77.89,3.36,2.06,4.54,1.29,1.29,3.09,2.08,5.07,2.08h13.68c2.75,0,4.6,2.83,3.49,5.35l-3.72,8.46c-.61,1.38-1.98,2.28-3.49,2.28h-152.95c-2.78,0-4.62-2.87-3.47-5.4l11.15-24.39.66-1.45c.66-1.44,1-3,1-4.58v-4.9c0-2.11-1.71-3.81-3.81-3.81h-50.84c-6.24,0-12.07,2.98-15.95,8.18-4.02,5.36-5.31,12.32-3.44,18.6,3.32,11.22,13.87,15.01,21.59,17.78l.53.19c1.93.68,4.05-.28,4.81-2.18l2.66-6.59c.81-2.01-.21-4.28-2.25-5.01l-.78-.28c-6.78-2.43-11.31-4.31-12.43-8.09-.53-1.84-.13-3.94,1.12-5.6.63-.85,2.01-2.27,4.14-2.27h31.35c2.78,0,4.62,2.87,3.47,5.4l-30.68,67.16c-.85,1.86-3,2.71-4.89,1.95-13-5.26-27.1-7.77-41.63-7.19-23.34.94-45.79,10.13-63.07,25.85-21.11,19.21-32.83,45.76-32.83,74.09,0,26.71,10.41,51.82,29.29,70.72,19.19,19.19,44.82,29.62,72.03,29.29,24.44-.31,48.13-9.67,66.15-26.19,20.94-19.19,32.53-45.61,32.53-73.81,0-26.71-10.39-51.84-29.29-70.72-4.5-4.52-9.38-8.54-14.54-12.06-1.53-1.04-2.08-3.04-1.31-4.72l.79-1.73c1.11-2.44,4.33-3,6.2-1.07l91.74,94.39c1.08,1.11,1.34,2.74.75,4.17-1.3,3.13-2.02,6.55-2.02,10.14,0,.85.04,1.68.11,2.49.48,4.97,2.3,9.56,5.14,13.36,4.84,6.52,12.6,10.74,21.33,10.74,11.79,0,21.79-7.7,25.27-18.33.49-1.5,1.79-2.58,3.36-2.7l12.04-.88c1.82-.13,3.49,1.03,3.96,2.79,4.47,16.8,13.3,32.21,25.92,44.85,18.9,18.88,44.01,29.29,70.72,29.29,26.71,0,51.82-10.41,70.72-29.29,18.88-18.9,29.29-44.01,29.29-70.72s-10.41-51.84-29.29-70.72ZM2046.14,217.15c-6.35,34.53-33.66,61.79-68.19,68.08-58.25,10.62-108.67-38.09-100.99-95.92,4.93-37.12,33.8-66.97,70.78-72.9,17.6-2.83,34.45-.28,49.1,6.3l-30.58,66.92c-.63-.07-1.27-.13-1.93-.13-8.23,0-14.92,6.69-14.92,14.92,0,8.25,6.69,14.92,14.92,14.92,1.12,0,2.23-.13,3.28-.37.37-.07.74-.17,1.11-.28,6.1-1.88,10.54-7.55,10.54-14.28,0-2.14-.44-4.18-1.27-6.02l31.41-68.77c27.13,18.12,43.41,51.3,36.75,87.52ZM2026.25,92.74l6.82-14.94h161.61l-50.68,115.21c-1.05-.13-2.1-.2-3.19-.2-4.99,0-9.65,1.38-13.65,3.78l-100.91-103.84ZM2145.97,234.08c-12.5,4.06-23.92-7.36-19.85-19.85,1.46-4.5,5.04-8.07,9.53-9.53,12.5-4.06,23.92,7.36,19.85,19.85-1.46,4.5-5.04,8.07-9.53,9.53ZM2182.46,209.66l-16.47,1.22c-1.68-4.96-4.77-9.25-8.8-12.42l48.47-110.16,18.48,31.15c-4.51,3.22-8.77,6.83-12.77,10.81-18.88,18.88-29.29,44.01-29.29,70.72,0,2.91.13,5.8.39,8.68ZM2196.37,200.98c0-28.35,13.83-53.53,35.09-69.13l41.12,69.34c-.35.61-.66,1.25-.92,1.92l-74.96,5.51c-.22-2.51-.33-5.05-.33-7.63ZM2282.08,286.7c-39.75,0-73.26-27.19-82.91-63.94l74.31-5.45c3.66,5.04,10.4,7.76,17.47,5.31,4.06-1.41,7.31-4.62,8.74-8.67,3.73-10.54-3.99-20.43-14.04-20.43-.33,0-.66.02-.99.04l-41.01-69.17c14.75-7.46,31.97-10.74,50.09-8.35,37.85,5.01,67.98,34.95,73.21,72.78,7.28,52.66-33.6,97.88-84.87,97.88Z"/><path class="cls-1" d="M1252.91,200.98c0,26.71,10.41,51.82,29.29,70.72,18.9,18.88,44.01,29.29,70.72,29.29,26.71,0,51.82-10.41,70.72-29.29,12.62-12.64,21.45-28.05,25.92-44.85.47-1.76,2.14-2.92,3.96-2.79l12.04.88c1.57.11,2.87,1.2,3.36,2.7,3.48,10.63,13.49,18.33,25.27,18.33,8.73,0,16.49-4.22,21.33-10.74,2.84-3.79,4.66-8.38,5.14-13.36.07-.81.11-1.64.11-2.49,0-3.6-.72-7.01-2.02-10.14-.59-1.43-.33-3.06.75-4.17l91.74-94.39c1.87-1.92,5.09-1.37,6.2,1.07l.79,1.73c.77,1.68.22,3.68-1.31,4.72-5.16,3.52-10.04,7.54-14.54,12.06-18.9,18.88-29.29,44.01-29.29,70.72,0,28.2,11.59,54.62,32.53,73.81,18.02,16.52,41.71,25.88,66.15,26.19,27.21.33,52.83-10.09,72.03-29.29,18.88-18.9,29.29-44.01,29.29-70.72,0-28.33-11.72-54.88-32.83-74.09-17.28-15.71-39.73-24.91-63.07-25.85-14.53-.58-28.64,1.94-41.63,7.19-1.89.76-4.05-.09-4.89-1.95l-30.68-67.16c-1.15-2.52.69-5.4,3.47-5.4h31.35c2.14,0,3.52,1.42,4.14,2.27,1.25,1.66,1.66,3.76,1.12,5.6-1.12,3.78-5.65,5.66-12.43,8.09l-.78.28c-2.04.73-3.06,3.01-2.25,5.01l2.66,6.59c.77,1.89,2.89,2.85,4.81,2.18l.53-.19c7.72-2.76,18.27-6.56,21.59-17.78,1.86-6.28.57-13.24-3.44-18.6-3.89-5.2-9.71-8.18-15.95-8.18h-50.84c-2.11,0-3.81,1.71-3.81,3.81v4.9c0,1.58.34,3.14,1,4.58l.66,1.45,11.15,24.39c1.15,2.52-.69,5.4-3.47,5.4h-152.95c-1.51,0-2.88-.89-3.49-2.28l-3.72-8.46c-1.11-2.52.74-5.35,3.49-5.35h13.68c1.97,0,3.78-.79,5.07-2.08,1.18-1.18,1.94-2.77,2.06-4.54.03-.37-.02-.75-.14-1.11-.52-1.62-2.11-3.97-6.68-6.52-3.39-1.9-8.46-3.92-15.95-5.84-18.86-4.84-45.22-6.8-49.06-2.21-1.86,2.23-3.5,4.86-4.48,7.53-2.53,6.91-.75,14.01,12.52,14.77.08,0,.16,0,.24,0h18.8c1.51,0,2.88.89,3.49,2.28l9.11,20.71c.5,1.13.42,2.42-.21,3.48l-20.8,35.07c-1,1.69-3.12,2.34-4.89,1.51-13.17-6.22-27.66-9.51-42.66-9.51-26.71,0-51.82,10.41-70.72,29.29-18.88,18.88-29.29,44.01-29.29,70.72ZM1625.61,129.64l31.41,68.77c-.83,1.84-1.27,3.89-1.27,6.02,0,6.72,4.44,12.4,10.54,14.28.37.11.74.2,1.11.28,1.05.24,2.16.37,3.28.37,8.23,0,14.92-6.67,14.92-14.92s-6.69-14.92-14.92-14.92c-.66,0-1.31.06-1.93.13l-30.58-66.92c14.66-6.58,31.5-9.13,49.1-6.3,36.97,5.93,65.85,35.78,70.78,72.9,7.68,57.83-42.74,106.54-100.99,95.92-34.54-6.29-61.84-33.56-68.19-68.08-6.66-36.22,9.63-69.4,36.75-87.52ZM1507.84,196.58c-4-2.4-8.66-3.78-13.65-3.78-1.09,0-2.14.07-3.19.2l-50.68-115.21h161.61s6.82,14.94,6.82,14.94l-100.91,103.84ZM1479.5,224.55c-4.06-12.5,7.36-23.92,19.85-19.85,4.5,1.46,8.07,5.04,9.53,9.53,4.06,12.5-7.36,23.92-19.85,19.85-4.5-1.46-8.07-5.04-9.53-9.53ZM1452.93,200.98c0-26.71-10.41-51.84-29.29-70.72-4-3.98-8.25-7.59-12.77-10.81l18.48-31.15,48.47,110.16c-4.03,3.17-7.13,7.46-8.8,12.42l-16.47-1.22c.26-2.87.39-5.77.39-8.68ZM1438.3,208.61l-74.96-5.51c-.26-.66-.57-1.31-.92-1.92l41.12-69.34c21.26,15.6,35.09,40.78,35.09,69.13,0,2.58-.11,5.12-.33,7.63ZM1268.05,188.82c5.23-37.82,35.36-67.77,73.21-72.78,18.11-2.39,35.33.89,50.09,8.35l-41.01,69.17c-.33-.02-.66-.04-.99-.04-10.05,0-17.77,9.88-14.04,20.43,1.43,4.05,4.69,7.26,8.74,8.67,7.07,2.45,13.81-.27,17.47-5.31l74.31,5.45c-9.65,36.75-43.16,63.94-82.91,63.94-51.27,0-92.15-45.22-84.87-97.88Z"/><path class="cls-2" d="M1134.8,130.26c-18.9-18.88-44.01-29.29-70.72-29.29-15.01,0-29.49,3.29-42.66,9.51-1.77.84-3.89.18-4.89-1.51l-20.8-35.07c-.63-1.06-.71-2.35-.21-3.48l9.11-20.71c.61-1.38,1.98-2.28,3.49-2.28h18.8c.08,0,.16,0,.24,0,13.26-.75,15.05-7.86,12.52-14.77-.98-2.67-2.62-5.31-4.48-7.53-3.83-4.59-30.19-2.63-49.06,2.21-7.5,1.92-12.56,3.94-15.95,5.84-4.57,2.55-6.15,4.9-6.68,6.52-.12.36-.17.74-.14,1.11.12,1.77.89,3.36,2.06,4.54,1.29,1.29,3.09,2.08,5.07,2.08h13.68c2.75,0,4.6,2.83,3.49,5.35l-3.72,8.46c-.61,1.38-1.98,2.28-3.49,2.28h-152.95c-2.78,0-4.62-2.87-3.47-5.4l11.15-24.39.66-1.45c.66-1.44,1-3,1-4.58v-4.9c0-2.11-1.71-3.81-3.81-3.81h-50.84c-6.24,0-12.07,2.98-15.95,8.18-4.02,5.36-5.31,12.32-3.44,18.6,3.32,11.22,13.87,15.01,21.59,17.78l.53.19c1.93.68,4.05-.28,4.81-2.18l2.66-6.59c.81-2.01-.21-4.28-2.25-5.01l-.78-.28c-6.78-2.43-11.31-4.31-12.43-8.09-.53-1.84-.13-3.94,1.12-5.6.63-.85,2.01-2.27,4.14-2.27h31.35c2.78,0,4.62,2.87,3.47,5.4l-30.68,67.16c-.85,1.86-3,2.71-4.89,1.95-13-5.26-27.1-7.77-41.63-7.19-23.34.94-45.79,10.13-63.07,25.85-21.11,19.21-32.83,45.76-32.83,74.09,0,26.71,10.41,51.82,29.29,70.72,19.19,19.19,44.82,29.62,72.03,29.29,24.44-.31,48.13-9.67,66.15-26.19,20.94-19.19,32.53-45.61,32.53-73.81,0-26.71-10.39-51.84-29.29-70.72-4.5-4.52-9.38-8.54-14.54-12.06-1.53-1.04-2.08-3.04-1.31-4.72l.79-1.73c1.11-2.44,4.33-3,6.2-1.07l91.74,94.39c1.08,1.11,1.34,2.74.75,4.17-1.3,3.13-2.02,6.55-2.02,10.14,0,.85.04,1.68.11,2.49.48,4.97,2.3,9.56,5.14,13.36,4.84,6.52,12.6,10.74,21.33,10.74,11.79,0,21.79-7.7,25.27-18.33.49-1.5,1.79-2.58,3.36-2.7l12.04-.88c1.82-.13,3.49,1.03,3.96,2.79,4.47,16.8,13.3,32.21,25.92,44.85,18.9,18.88,44.01,29.29,70.72,29.29s51.82-10.41,70.72-29.29c18.88-18.9,29.29-44.01,29.29-70.72s-10.41-51.84-29.29-70.72ZM828.14,217.15c-6.35,34.53-33.66,61.79-68.19,68.08-58.25,10.62-108.67-38.09-100.99-95.92,4.93-37.12,33.8-66.97,70.78-72.9,17.6-2.83,34.45-.28,49.1,6.3l-30.58,66.92c-.63-.07-1.27-.13-1.93-.13-8.23,0-14.92,6.69-14.92,14.92,0,8.25,6.69,14.92,14.92,14.92,1.12,0,2.23-.13,3.28-.37.37-.07.74-.17,1.11-.28,6.1-1.88,10.54-7.55,10.54-14.28,0-2.14-.44-4.18-1.27-6.02l31.41-68.77c27.13,18.12,43.41,51.3,36.75,87.52ZM808.25,92.74l6.82-14.94h161.61s-50.68,115.21-50.68,115.21c-1.05-.13-2.1-.2-3.19-.2-4.99,0-9.65,1.38-13.65,3.78l-100.91-103.84ZM927.97,234.08c-12.5,4.06-23.92-7.36-19.85-19.85,1.46-4.5,5.04-8.07,9.53-9.53,12.5-4.06,23.92,7.36,19.85,19.85-1.46,4.5-5.04,8.07-9.53,9.53ZM964.46,209.66l-16.47,1.22c-1.68-4.96-4.77-9.25-8.8-12.42l48.47-110.16,18.48,31.15c-4.51,3.22-8.77,6.83-12.77,10.81-18.88,18.88-29.29,44.01-29.29,70.72,0,2.91.13,5.8.39,8.68ZM978.37,200.98c0-28.35,13.83-53.53,35.09-69.13l41.12,69.34c-.35.61-.66,1.25-.92,1.92l-74.96,5.51c-.22-2.51-.33-5.05-.33-7.63ZM1064.08,286.7c-39.75,0-73.26-27.19-82.91-63.94l74.31-5.45c3.66,5.04,10.4,7.76,17.47,5.31,4.06-1.41,7.31-4.62,8.74-8.67,3.73-10.54-3.99-20.43-14.04-20.43-.33,0-.66.02-.99.04l-41.01-69.17c14.75-7.46,31.97-10.74,50.09-8.35,37.85,5.01,67.98,34.95,73.21,72.78,7.28,52.66-33.6,97.88-84.87,97.88Z"/><path class="cls-1" d="M2470.91,200.98c0,26.71,10.41,51.82,29.29,70.72,18.9,18.88,44.01,29.29,70.72,29.29,26.71,0,51.82-10.41,70.72-29.29,12.62-12.64,21.45-28.05,25.92-44.85.47-1.76,2.14-2.92,3.96-2.79l12.04.88c1.57.11,2.87,1.2,3.36,2.7,3.48,10.63,13.49,18.33,25.27,18.33,8.73,0,16.49-4.22,21.33-10.74,2.84-3.79,4.66-8.38,5.14-13.36.07-.81.11-1.64.11-2.49,0-3.6-.72-7.01-2.02-10.14-.59-1.43-.33-3.06.75-4.17l91.74-94.39c1.87-1.92,5.09-1.37,6.2,1.07l.79,1.73c.77,1.68.22,3.68-1.31,4.72-5.16,3.52-10.04,7.54-14.54,12.06-18.9,18.88-29.29,44.01-29.29,70.72,0,28.2,11.59,54.62,32.53,73.81,18.02,16.52,41.71,25.88,66.15,26.19,27.21.33,52.83-10.09,72.03-29.29,18.88-18.9,29.29-44.01,29.29-70.72,0-28.33-11.72-54.88-32.83-74.09-17.28-15.71-39.73-24.91-63.07-25.85-14.53-.58-28.64,1.94-41.63,7.19-1.89.76-4.05-.09-4.89-1.95l-30.68-67.16c-1.15-2.52.69-5.4,3.47-5.4h31.35c2.14,0,3.52,1.42,4.14,2.27,1.25,1.66,1.66,3.76,1.12,5.6-1.12,3.78-5.65,5.66-12.43,8.09l-.78.28c-2.04.73-3.06,3.01-2.25,5.01l2.66,6.59c.77,1.89,2.89,2.85,4.81,2.18l.53-.19c7.72-2.76,18.27-6.56,21.59-17.78,1.86-6.28.57-13.24-3.44-18.6-3.89-5.2-9.71-8.18-15.95-8.18h-50.84c-2.11,0-3.81,1.71-3.81,3.81v4.9c0,1.58.34,3.14,1,4.58l.66,1.45,11.15,24.39c1.15,2.52-.69,5.4-3.47,5.4h-152.95c-1.51,0-2.88-.89-3.49-2.28l-3.72-8.46c-1.11-2.52.74-5.35,3.49-5.35h13.68c1.97,0,3.78-.79,5.07-2.08,1.18-1.18,1.94-2.77,2.06-4.54.03-.37-.02-.75-.14-1.11-.52-1.62-2.11-3.97-6.68-6.52-3.39-1.9-8.46-3.92-15.95-5.84-18.86-4.84-45.22-6.8-49.06-2.21-1.86,2.23-3.5,4.86-4.48,7.53-2.53,6.91-.75,14.01,12.52,14.77.08,0,.16,0,.24,0h18.8c1.51,0,2.88.89,3.49,2.28l9.11,20.71c.5,1.13.42,2.42-.21,3.48l-20.8,35.07c-1,1.69-3.12,2.34-4.89,1.51-13.17-6.22-27.66-9.51-42.66-9.51-26.71,0-51.82,10.41-70.72,29.29-18.88,18.88-29.29,44.01-29.29,70.72ZM2843.61,129.64l31.41,68.77c-.83,1.84-1.27,3.89-1.27,6.02,0,6.72,4.44,12.4,10.54,14.28.37.11.74.2,1.11.28,1.05.24,2.16.37,3.28.37,8.23,0,14.92-6.67,14.92-14.92s-6.69-14.92-14.92-14.92c-.66,0-1.31.06-1.93.13l-30.58-66.92c14.66-6.58,31.5-9.13,49.1-6.3,36.97,5.93,65.85,35.78,70.78,72.9,7.68,57.83-42.74,106.54-100.99,95.92-34.54-6.29-61.84-33.56-68.19-68.08-6.66-36.22,9.63-69.4,36.75-87.52ZM2725.84,196.58c-4-2.4-8.66-3.78-13.65-3.78-1.09,0-2.14.07-3.19.2l-50.68-115.21h161.61s6.82,14.94,6.82,14.94l-100.91,103.84ZM2697.5,224.55c-4.06-12.5,7.36-23.92,19.85-19.85,4.5,1.46,8.07,5.04,9.53,9.53,4.06,12.5-7.36,23.92-19.85,19.85-4.5-1.46-8.07-5.04-9.53-9.53ZM2670.93,200.98c0-26.71-10.41-51.84-29.29-70.72-4-3.98-8.25-7.59-12.77-10.81l18.48-31.15,48.47,110.16c-4.03,3.17-7.13,7.46-8.8,12.42l-16.47-1.22c.26-2.87.39-5.77.39-8.68ZM2656.3,208.61l-74.96-5.51c-.26-.66-.57-1.31-.92-1.92l41.12-69.34c21.26,15.6,35.09,40.78,35.09,69.13,0,2.58-.11,5.12-.33,7.63ZM2486.05,188.82c5.23-37.82,35.36-67.77,73.21-72.78,18.11-2.39,35.33.89,50.09,8.35l-41.01,69.17c-.33-.02-.66-.04-.99-.04-10.05,0-17.77,9.88-14.04,20.43,1.43,4.05,4.69,7.26,8.74,8.67,7.07,2.45,13.81-.27,17.47-5.31l74.31,5.45c-9.65,36.75-43.16,63.94-82.91,63.94-51.27,0-92.15-45.22-84.87-97.88Z"/><path class="cls-2" d="M4788.8,130.26c-18.9-18.88-44.01-29.29-70.72-29.29-15.01,0-29.49,3.29-42.66,9.51-1.77.84-3.89.18-4.89-1.51l-20.8-35.07c-.63-1.06-.71-2.35-.21-3.48l9.11-20.71c.61-1.38,1.98-2.28,3.49-2.28h18.8c.08,0,.16,0,.24,0,13.26-.75,15.05-7.86,12.52-14.77-.98-2.67-2.62-5.31-4.48-7.53-3.83-4.59-30.19-2.63-49.06,2.21-7.5,1.92-12.56,3.94-15.95,5.84-4.57,2.55-6.15,4.9-6.68,6.52-.12.36-.17.74-.14,1.11.12,1.77.89,3.36,2.06,4.54,1.29,1.29,3.09,2.08,5.07,2.08h13.68c2.75,0,4.6,2.83,3.49,5.35l-3.72,8.46c-.61,1.38-1.98,2.28-3.49,2.28h-152.95c-2.78,0-4.62-2.87-3.47-5.4l11.15-24.39.66-1.45c.66-1.44,1-3,1-4.58v-4.9c0-2.11-1.71-3.81-3.81-3.81h-50.84c-6.24,0-12.07,2.98-15.95,8.18-4.02,5.36-5.31,12.32-3.44,18.6,3.32,11.22,13.87,15.01,21.59,17.78l.53.19c1.93.68,4.05-.28,4.81-2.18l2.66-6.59c.81-2.01-.21-4.28-2.25-5.01l-.78-.28c-6.78-2.43-11.31-4.31-12.43-8.09-.53-1.84-.13-3.94,1.12-5.6.63-.85,2.01-2.27,4.14-2.27h31.35c2.78,0,4.62,2.87,3.47,5.4l-30.68,67.16c-.85,1.86-3,2.71-4.89,1.95-13-5.26-27.1-7.77-41.63-7.19-23.34.94-45.79,10.13-63.07,25.85-21.11,19.21-32.83,45.76-32.83,74.09,0,26.71,10.41,51.82,29.29,70.72,19.19,19.19,44.82,29.62,72.03,29.29,24.44-.31,48.13-9.67,66.15-26.19,20.94-19.19,32.53-45.61,32.53-73.81,0-26.71-10.39-51.84-29.29-70.72-4.5-4.52-9.38-8.54-14.54-12.06-1.53-1.04-2.08-3.04-1.31-4.72l.79-1.73c1.11-2.44,4.33-3,6.2-1.07l91.74,94.39c1.08,1.11,1.34,2.74.75,4.17-1.3,3.13-2.02,6.55-2.02,10.14,0,.85.04,1.68.11,2.49.48,4.97,2.3,9.56,5.14,13.36,4.84,6.52,12.6,10.74,21.33,10.74,11.79,0,21.79-7.7,25.27-18.33.49-1.5,1.79-2.58,3.36-2.7l12.04-.88c1.82-.13,3.49,1.03,3.96,2.79,4.47,16.8,13.3,32.21,25.92,44.85,18.9,18.88,44.01,29.29,70.72,29.29,26.71,0,51.82-10.41,70.72-29.29,18.88-18.9,29.29-44.01,29.29-70.72s-10.41-51.84-29.29-70.72ZM4482.14,217.15c-6.35,34.53-33.66,61.79-68.19,68.08-58.25,10.62-108.67-38.09-100.99-95.92,4.93-37.12,33.8-66.97,70.78-72.9,17.6-2.83,34.45-.28,49.1,6.3l-30.58,66.92c-.63-.07-1.27-.13-1.93-.13-8.23,0-14.92,6.69-14.92,14.92,0,8.25,6.69,14.92,14.92,14.92,1.12,0,2.23-.13,3.28-.37.37-.07.74-.17,1.11-.28,6.1-1.88,10.54-7.55,10.54-14.28,0-2.14-.44-4.18-1.27-6.02l31.41-68.77c27.13,18.12,43.41,51.3,36.75,87.52ZM4462.25,92.74l6.82-14.94h161.61l-50.68,115.21c-1.05-.13-2.1-.2-3.19-.2-4.99,0-9.65,1.38-13.65,3.78l-100.91-103.84ZM4581.97,234.08c-12.5,4.06-23.92-7.36-19.85-19.85,1.46-4.5,5.04-8.07,9.53-9.53,12.5-4.06,23.92,7.36,19.85,19.85-1.46,4.5-5.04,8.07-9.53,9.53ZM4618.46,209.66l-16.47,1.22c-1.68-4.96-4.77-9.25-8.8-12.42l48.47-110.16,18.48,31.15c-4.51,3.22-8.77,6.83-12.77,10.81-18.88,18.88-29.29,44.01-29.29,70.72,0,2.91.13,5.8.39,8.68ZM4632.37,200.98c0-28.35,13.83-53.53,35.09-69.13l41.12,69.34c-.35.61-.66,1.25-.92,1.92l-74.96,5.51c-.22-2.51-.33-5.05-.33-7.63ZM4718.08,286.7c-39.75,0-73.26-27.19-82.91-63.94l74.31-5.45c3.66,5.04,10.4,7.76,17.47,5.31,4.06-1.41,7.31-4.62,8.74-8.67,3.73-10.54-3.99-20.43-14.04-20.43-.33,0-.66.02-.99.04l-41.01-69.17c14.75-7.46,31.97-10.74,50.09-8.35,37.85,5.01,67.98,34.95,73.21,72.78,7.28,52.66-33.6,97.88-84.87,97.88Z"/><path class="cls-1" d="M3688.91,200.98c0,26.71,10.41,51.82,29.29,70.72,18.9,18.88,44.01,29.29,70.72,29.29,26.71,0,51.82-10.41,70.72-29.29,12.62-12.64,21.45-28.05,25.92-44.85.47-1.76,2.14-2.92,3.96-2.79l12.04.88c1.57.11,2.87,1.2,3.36,2.7,3.48,10.63,13.49,18.33,25.27,18.33,8.73,0,16.49-4.22,21.33-10.74,2.84-3.79,4.66-8.38,5.14-13.36.07-.81.11-1.64.11-2.49,0-3.6-.72-7.01-2.02-10.14-.59-1.43-.33-3.06.75-4.17l91.74-94.39c1.87-1.92,5.09-1.37,6.2,1.07l.79,1.73c.77,1.68.22,3.68-1.31,4.72-5.16,3.52-10.04,7.54-14.54,12.06-18.9,18.88-29.29,44.01-29.29,70.72,0,28.2,11.59,54.62,32.53,73.81,18.02,16.52,41.71,25.88,66.15,26.19,27.21.33,52.83-10.09,72.03-29.29,18.88-18.9,29.29-44.01,29.29-70.72,0-28.33-11.72-54.88-32.83-74.09-17.28-15.71-39.73-24.91-63.07-25.85-14.53-.58-28.64,1.94-41.63,7.19-1.89.76-4.05-.09-4.89-1.95l-30.68-67.16c-1.15-2.52.69-5.4,3.47-5.4h31.35c2.14,0,3.52,1.42,4.14,2.27,1.25,1.66,1.66,3.76,1.12,5.6-1.12,3.78-5.65,5.66-12.43,8.09l-.78.28c-2.04.73-3.06,3.01-2.25,5.01l2.66,6.59c.77,1.89,2.89,2.85,4.81,2.18l.53-.19c7.72-2.76,18.27-6.56,21.59-17.78,1.86-6.28.57-13.24-3.44-18.6-3.89-5.2-9.71-8.18-15.95-8.18h-50.84c-2.11,0-3.81,1.71-3.81,3.81v4.9c0,1.58.34,3.14,1,4.58l.66,1.45,11.15,24.39c1.15,2.52-.69,5.4-3.47,5.4h-152.95c-1.51,0-2.88-.89-3.49-2.28l-3.72-8.46c-1.11-2.52.74-5.35,3.49-5.35h13.68c1.97,0,3.78-.79,5.07-2.08,1.18-1.18,1.94-2.77,2.06-4.54.03-.37-.02-.75-.14-1.11-.52-1.62-2.11-3.97-6.68-6.52-3.39-1.9-8.46-3.92-15.95-5.84-18.86-4.84-45.22-6.8-49.06-2.21-1.86,2.23-3.5,4.86-4.48,7.53-2.53,6.91-.75,14.01,12.52,14.77.08,0,.16,0,.24,0h18.8c1.51,0,2.88.89,3.49,2.28l9.11,20.71c.5,1.13.42,2.42-.21,3.48l-20.8,35.07c-1,1.69-3.12,2.34-4.89,1.51-13.17-6.22-27.66-9.51-42.66-9.51-26.71,0-51.82,10.41-70.72,29.29-18.88,18.88-29.29,44.01-29.29,70.72ZM4061.61,129.64l31.41,68.77c-.83,1.84-1.27,3.89-1.27,6.02,0,6.72,4.44,12.4,10.54,14.28.37.11.74.2,1.11.28,1.05.24,2.16.37,3.28.37,8.23,0,14.92-6.67,14.92-14.92s-6.69-14.92-14.92-14.92c-.66,0-1.31.06-1.93.13l-30.58-66.92c14.66-6.58,31.5-9.13,49.1-6.3,36.97,5.93,65.85,35.78,70.78,72.9,7.68,57.83-42.74,106.54-100.99,95.92-34.54-6.29-61.84-33.56-68.19-68.08-6.66-36.22,9.63-69.4,36.75-87.52ZM3943.84,196.58c-4-2.4-8.66-3.78-13.65-3.78-1.09,0-2.14.07-3.19.2l-50.68-115.21h161.61s6.82,14.94,6.82,14.94l-100.91,103.84ZM3915.5,224.55c-4.06-12.5,7.36-23.92,19.85-19.85,4.5,1.46,8.07,5.04,9.53,9.53,4.06,12.5-7.36,23.92-19.85,19.85-4.5-1.46-8.07-5.04-9.53-9.53ZM3888.93,200.98c0-26.71-10.41-51.84-29.29-70.72-4-3.98-8.25-7.59-12.77-10.81l18.48-31.15,48.47,110.16c-4.03,3.17-7.13,7.46-8.8,12.42l-16.47-1.22c.26-2.87.39-5.77.39-8.68ZM3874.3,208.61l-74.96-5.51c-.26-.66-.57-1.31-.92-1.92l41.12-69.34c21.26,15.6,35.09,40.78,35.09,69.13,0,2.58-.11,5.12-.33,7.63ZM3704.05,188.82c5.23-37.82,35.36-67.77,73.21-72.78,18.11-2.39,35.33.89,50.09,8.35l-41.01,69.17c-.33-.02-.66-.04-.99-.04-10.05,0-17.77,9.88-14.04,20.43,1.43,4.05,4.69,7.26,8.74,8.67,7.07,2.45,13.81-.27,17.47-5.31l74.31,5.45c-9.65,36.75-43.16,63.94-82.91,63.94-51.27,0-92.15-45.22-84.87-97.88Z"/><path class="cls-2" d="M3570.8,130.26c-18.9-18.88-44.01-29.29-70.72-29.29-15.01,0-29.49,3.29-42.66,9.51-1.77.84-3.89.18-4.89-1.51l-20.8-35.07c-.63-1.06-.71-2.35-.21-3.48l9.11-20.71c.61-1.38,1.98-2.28,3.49-2.28h18.8c.08,0,.16,0,.24,0,13.26-.75,15.05-7.86,12.52-14.77-.98-2.67-2.62-5.31-4.48-7.53-3.83-4.59-30.19-2.63-49.06,2.21-7.5,1.92-12.56,3.94-15.95,5.84-4.57,2.55-6.15,4.9-6.68,6.52-.12.36-.17.74-.14,1.11.12,1.77.89,3.36,2.06,4.54,1.29,1.29,3.09,2.08,5.07,2.08h13.68c2.75,0,4.6,2.83,3.49,5.35l-3.72,8.46c-.61,1.38-1.98,2.28-3.49,2.28h-152.95c-2.78,0-4.62-2.87-3.47-5.4l11.15-24.39.66-1.45c.66-1.44,1-3,1-4.58v-4.9c0-2.11-1.71-3.81-3.81-3.81h-50.84c-6.24,0-12.07,2.98-15.95,8.18-4.02,5.36-5.31,12.32-3.44,18.6,3.32,11.22,13.87,15.01,21.59,17.78l.53.19c1.93.68,4.05-.28,4.81-2.18l2.66-6.59c.81-2.01-.21-4.28-2.25-5.01l-.78-.28c-6.78-2.43-11.31-4.31-12.43-8.09-.53-1.84-.13-3.94,1.12-5.6.63-.85,2.01-2.27,4.14-2.27h31.35c2.78,0,4.62,2.87,3.47,5.4l-30.68,67.16c-.85,1.86-3,2.71-4.89,1.95-13-5.26-27.1-7.77-41.63-7.19-23.34.94-45.79,10.13-63.07,25.85-21.11,19.21-32.83,45.76-32.83,74.09,0,26.71,10.41,51.82,29.29,70.72,19.19,19.19,44.82,29.62,72.03,29.29,24.44-.31,48.13-9.67,66.15-26.19,20.94-19.19,32.53-45.61,32.53-73.81,0-26.71-10.39-51.84-29.29-70.72-4.5-4.52-9.38-8.54-14.54-12.06-1.53-1.04-2.08-3.04-1.31-4.72l.79-1.73c1.11-2.44,4.33-3,6.2-1.07l91.74,94.39c1.08,1.11,1.34,2.74.75,4.17-1.3,3.13-2.02,6.55-2.02,10.14,0,.85.04,1.68.11,2.49.48,4.97,2.3,9.56,5.14,13.36,4.84,6.52,12.6,10.74,21.33,10.74,11.79,0,21.79-7.7,25.27-18.33.49-1.5,1.79-2.58,3.36-2.7l12.04-.88c1.82-.13,3.49,1.03,3.96,2.79,4.47,16.8,13.3,32.21,25.92,44.85,18.9,18.88,44.01,29.29,70.72,29.29s51.82-10.41,70.72-29.29c18.88-18.9,29.29-44.01,29.29-70.72s-10.41-51.84-29.29-70.72ZM3264.14,217.15c-6.35,34.53-33.66,61.79-68.19,68.08-58.25,10.62-108.67-38.09-100.99-95.92,4.93-37.12,33.8-66.97,70.78-72.9,17.6-2.83,34.45-.28,49.1,6.3l-30.58,66.92c-.63-.07-1.27-.13-1.93-.13-8.23,0-14.92,6.69-14.92,14.92,0,8.25,6.69,14.92,14.92,14.92,1.12,0,2.23-.13,3.28-.37.37-.07.74-.17,1.11-.28,6.1-1.88,10.54-7.55,10.54-14.28,0-2.14-.44-4.18-1.27-6.02l31.41-68.77c27.13,18.12,43.41,51.3,36.75,87.52ZM3244.25,92.74l6.82-14.94h161.61s-50.68,115.21-50.68,115.21c-1.05-.13-2.1-.2-3.19-.2-4.99,0-9.65,1.38-13.65,3.78l-100.91-103.84ZM3363.97,234.08c-12.5,4.06-23.92-7.36-19.85-19.85,1.46-4.5,5.04-8.07,9.53-9.53,12.5-4.06,23.92,7.36,19.85,19.85-1.46,4.5-5.04,8.07-9.53,9.53ZM3400.46,209.66l-16.47,1.22c-1.68-4.96-4.77-9.25-8.8-12.42l48.47-110.16,18.48,31.15c-4.51,3.22-8.77,6.83-12.77,10.81-18.88,18.88-29.29,44.01-29.29,70.72,0,2.91.13,5.8.39,8.68ZM3414.37,200.98c0-28.35,13.83-53.53,35.09-69.13l41.12,69.34c-.35.61-.66,1.25-.92,1.92l-74.96,5.51c-.22-2.51-.33-5.05-.33-7.63ZM3500.08,286.7c-39.75,0-73.26-27.19-82.91-63.94l74.31-5.45c3.66,5.04,10.4,7.76,17.47,5.31,4.06-1.41,7.31-4.62,8.74-8.67,3.73-10.54-3.99-20.43-14.04-20.43-.33,0-.66.02-.99.04l-41.01-69.17c14.75-7.46,31.97-10.74,50.09-8.35,37.85,5.01,67.98,34.95,73.21,72.78,7.28,52.66-33.6,97.88-84.87,97.88Z"/></svg>