<svg width="176" height="176" viewBox="0 0 176 176" fill="none" xmlns="http://www.w3.org/2000/svg">
<path d="M87.9998 51.3333C87.9998 43.5536 84.9094 36.0926 79.4083 30.5915C73.9072 25.0905 66.4462 22 58.6665 22H14.6665V132H65.9998C71.8346 132 77.4304 134.318 81.5562 138.444C85.682 142.569 87.9998 148.165 87.9998 154M87.9998 51.3333V154M87.9998 51.3333C87.9998 43.5536 91.0903 36.0926 96.5914 30.5915C102.092 25.0905 109.553 22 117.333 22H161.333V132H110C104.165 132 98.5693 134.318 94.4435 138.444C90.3177 142.569 87.9998 148.165 87.9998 154" stroke="#F3F3F3" stroke-width="12" stroke-linecap="round" stroke-linejoin="round"/>
</svg>
