<svg width="162" height="161" viewBox="0 0 162 161" fill="none" xmlns="http://www.w3.org/2000/svg">
<path d="M141.75 67.0835C141.75 114.042 81 154.292 81 154.292C81 154.292 20.25 114.042 20.25 67.0835C20.25 51.0711 26.6504 35.7144 38.0433 24.3919C49.4361 13.0694 64.8881 6.7085 81 6.7085C97.1119 6.7085 112.564 13.0694 123.957 24.3919C135.35 35.7144 141.75 51.0711 141.75 67.0835Z" stroke="#F5F5F5" stroke-width="12" stroke-linecap="round" stroke-linejoin="round"/>
<path d="M81 87.2085C92.1838 87.2085 101.25 78.1982 101.25 67.0835C101.25 55.9688 92.1838 46.9585 81 46.9585C69.8162 46.9585 60.75 55.9688 60.75 67.0835C60.75 78.1982 69.8162 87.2085 81 87.2085Z" stroke="#F5F5F5" stroke-width="12" stroke-linecap="round" stroke-linejoin="round"/>
</svg>
