<svg width="65" height="65" viewBox="0 0 65 65" fill="none" xmlns="http://www.w3.org/2000/svg">
<path d="M13.3693 50.8035C19.2762 50.8035 24.0647 46.0149 24.0647 40.108C24.0647 34.2012 19.2762 29.4126 13.3693 29.4126C7.46234 29.4126 2.67383 34.2012 2.67383 40.108C2.67383 46.0149 7.46234 50.8035 13.3693 50.8035Z" stroke="white" stroke-width="4" stroke-linecap="round" stroke-linejoin="round"/>
<path d="M22.728 20.0538H38.7712M38.7712 20.0538H40.1081L50.8036 40.1078M38.7712 20.0538L44.1189 12.0322M44.1189 12.0322H37.4343M44.1189 12.0322H49.4666" stroke="white" stroke-width="4" stroke-linecap="round" stroke-linejoin="round"/>
<path d="M13.3691 40.1077L22.7276 20.0537L32.0862 37.4338H40.1077" stroke="white" stroke-width="4" stroke-linecap="round" stroke-linejoin="round"/>
<path d="M22.7277 20.0538C21.8364 17.3799 18.7169 12.0322 13.3691 12.0322" stroke="white" stroke-width="4" stroke-linecap="round" stroke-linejoin="round"/>
<path d="M50.8033 50.8035C56.7102 50.8035 61.4988 46.0149 61.4988 40.108C61.4988 34.2012 56.7102 29.4126 50.8033 29.4126C44.8965 29.4126 40.1079 34.2012 40.1079 40.108C40.1079 46.0149 44.8965 50.8035 50.8033 50.8035Z" stroke="white" stroke-width="4" stroke-linecap="round" stroke-linejoin="round"/>
</svg>
