<svg width="55" height="55" viewBox="0 0 55 55" fill="none" xmlns="http://www.w3.org/2000/svg">
<path d="M27.4135 15.9914C27.4135 13.5679 26.4507 11.2436 24.7371 9.52993C23.0234 7.81625 20.6991 6.85352 18.2756 6.85352H4.56885V41.1205H20.5601C22.3777 41.1205 24.1209 41.8425 25.4062 43.1278C26.6914 44.413 27.4135 46.1562 27.4135 47.9738M27.4135 15.9914V47.9738M27.4135 15.9914C27.4135 13.5679 28.3762 11.2436 30.0899 9.52993C31.8036 7.81625 34.1278 6.85352 36.5513 6.85352H50.2581V41.1205H34.2669C32.4492 41.1205 30.706 41.8425 29.4208 43.1278C28.1355 44.413 27.4135 46.1562 27.4135 47.9738" stroke="#F3F3F3" stroke-width="4" stroke-linecap="round" stroke-linejoin="round"/>
</svg>
